<?xml version="1.0" encoding="UTF-8" standalone="no"?>
<!DOCTYPE svg PUBLIC "-//W3C//DTD SVG 1.1//EN" "http://www.w3.org/Graphics/SVG/1.1/DTD/svg11.dtd">
<svg width="100%" height="100%" viewBox="0 0 1903 564" version="1.1" xmlns="http://www.w3.org/2000/svg" xmlns:xlink="http://www.w3.org/1999/xlink" xml:space="preserve" xmlns:serif="http://www.serif.com/" style="fill-rule:evenodd;clip-rule:evenodd;stroke-linejoin:round;stroke-miterlimit:2;">
    <g transform="matrix(1.52151,0,0,1.52151,-165.277,-421.935)">
        <path d="M739.849,578.109C734.84,582.208 728.691,585.282 721.404,587.331C714.345,589.381 706.83,590.406 698.86,590.406C678.82,590.406 663.335,585.168 652.405,574.693C641.474,564.218 636.009,548.961 636.009,528.921L636.009,441.135L605.95,441.135L605.95,406.977L636.009,406.977L636.009,365.304L678.707,365.304L678.707,406.977L727.553,406.977L727.553,441.135L678.707,441.135L678.707,527.896C678.707,536.778 680.87,543.609 685.197,548.391C689.523,552.946 695.786,555.223 703.984,555.223C713.548,555.223 721.518,552.718 727.894,547.708L739.849,578.109Z" style="fill:rgb(59,59,107);fill-rule:nonzero;"/>
    </g>
    <g transform="matrix(1.52151,0,0,1.52151,-165.277,-421.935)">
        <path d="M940.357,497.837C940.357,500.798 940.13,505.01 939.674,510.476L796.552,510.476C799.057,523.911 805.547,534.614 816.022,542.584C826.725,550.327 839.933,554.198 855.645,554.198C875.685,554.198 892.195,547.594 905.175,534.386L928.06,560.688C919.863,570.48 909.501,577.881 896.977,582.891C884.452,587.901 870.333,590.406 854.621,590.406C834.581,590.406 816.933,586.421 801.676,578.45C786.418,570.48 774.577,559.436 766.151,545.317C757.953,530.971 753.854,514.802 753.854,496.813C753.854,479.05 757.839,463.11 765.81,448.991C774.008,434.645 785.28,423.487 799.626,415.516C813.973,407.546 830.141,403.561 848.131,403.561C865.893,403.561 881.719,407.546 895.61,415.516C909.729,423.259 920.66,434.303 928.402,448.65C936.372,462.768 940.357,479.164 940.357,497.837ZM848.131,437.719C834.467,437.719 822.854,441.818 813.289,450.016C803.953,457.986 798.26,468.689 796.21,482.125L899.709,482.125C897.888,468.917 892.308,458.214 882.972,450.016C873.635,441.818 862.022,437.719 848.131,437.719Z" style="fill:rgb(59,59,107);fill-rule:nonzero;"/>
    </g>
    <g transform="matrix(1.52151,0,0,1.52151,-165.277,-421.935)">
        <path d="M1065.03,590.406C1046.13,590.406 1029.17,586.421 1014.14,578.45C999.109,570.48 987.382,559.436 978.956,545.317C970.53,530.971 966.318,514.802 966.318,496.813C966.318,478.823 970.53,462.768 978.956,448.65C987.382,434.531 998.995,423.487 1013.8,415.516C1028.83,407.546 1045.91,403.561 1065.03,403.561C1083.02,403.561 1098.74,407.205 1112.17,414.492C1125.84,421.779 1136.08,432.254 1142.91,445.917L1110.12,465.046C1104.88,456.62 1098.28,450.358 1090.31,446.259C1082.57,441.932 1074.03,439.769 1064.69,439.769C1048.75,439.769 1035.55,445.006 1025.07,455.481C1014.59,465.729 1009.36,479.506 1009.36,496.813C1009.36,514.119 1014.48,528.01 1024.73,538.485C1035.2,548.733 1048.53,553.857 1064.69,553.857C1074.03,553.857 1082.57,551.807 1090.31,547.708C1098.28,543.381 1104.88,537.005 1110.12,528.58L1142.91,547.708C1135.86,561.371 1125.49,571.96 1111.83,579.475C1098.39,586.762 1082.8,590.406 1065.03,590.406Z" style="fill:rgb(59,59,107);fill-rule:nonzero;"/>
    </g>
    <g transform="matrix(1.52151,0,0,1.52151,-165.277,-421.935)">
        <path d="M1281.6,403.561C1304.6,403.561 1323.04,410.279 1336.93,423.714C1350.82,437.15 1357.77,457.075 1357.77,483.491L1357.77,588.015L1315.07,588.015L1315.07,488.956C1315.07,473.016 1311.31,461.06 1303.8,453.09C1296.29,444.892 1285.58,440.793 1271.69,440.793C1255.98,440.793 1243.57,445.575 1234.46,455.14C1225.35,464.476 1220.8,478.026 1220.8,495.788L1220.8,588.015L1178.1,588.015L1178.1,334.562L1220.8,334.562L1220.8,426.789C1227.86,419.274 1236.51,413.581 1246.76,409.709C1257.23,405.61 1268.84,403.561 1281.6,403.561Z" style="fill:rgb(59,59,107);fill-rule:nonzero;"/>
    </g>
    <g transform="matrix(1.52151,0,0,1.52151,-25.1718,-346.732)">
        <circle cx="200.974" cy="413.057" r="182.85" style="fill:rgb(210,72,72);"/>
    </g>
</svg>
